<?xml version="1.0" standalone="no"?>
<!DOCTYPE svg PUBLIC "-//W3C//DTD SVG 20010904//EN"
 "http://www.w3.org/TR/2001/REC-SVG-20010904/DTD/svg10.dtd">
<svg version="1.0" xmlns="http://www.w3.org/2000/svg"
 width="590.000000pt" height="384.000000pt" viewBox="0 0 590.000000 384.000000"
 preserveAspectRatio="xMidYMid meet">
<metadata>
Created by potrace 1.15, written by Peter Selinger 2001-2017
</metadata>
<g transform="translate(0.000000,384.000000) scale(0.100000,-0.100000)"
fill="#000000" stroke="none">
<path d="M933 3302 l-692 -397 -1 -922 0 -923 45 0 45 0 2 897 3 897 648 373
c357 205 652 373 656 373 4 0 304 -168 666 -374 l658 -374 39 25 c21 15 35 30
31 34 -18 17 -1383 789 -1395 789 -7 0 -324 -179 -705 -398z"/>
<path d="M1025 3130 l-550 -318 -3 -52 -3 -52 69 38 c38 22 290 165 560 319
l491 280 1 53 c0 28 -3 52 -7 51 -5 0 -255 -144 -558 -319z"/>
<path d="M5588 1873 l-3 -897 -649 -374 c-358 -205 -657 -371 -665 -369 -9 3
-308 171 -666 375 l-649 370 -39 -26 c-30 -20 -35 -28 -25 -37 7 -7 321 -187
696 -400 594 -337 687 -387 708 -379 13 5 330 185 704 399 l679 390 1 923 0
922 -45 0 -45 0 -2 -897z"/>
<path d="M810 1915 l0 -605 135 0 135 0 0 427 c0 235 4 423 8 418 5 -6 57
-192 117 -415 59 -223 110 -411 112 -418 4 -9 34 -12 121 -10 l116 3 108 414
c59 227 110 416 113 419 3 3 5 -184 5 -416 l0 -422 170 0 170 0 0 605 0 605
-242 -2 -242 -3 -81 -307 c-44 -169 -82 -309 -85 -312 -3 -3 -44 135 -91 307
l-85 312 -242 3 -242 2 0 -605z"/>
<path d="M2340 1915 l0 -605 268 0 c312 1 389 11 501 66 190 94 301 292 301
539 0 117 -21 209 -67 304 -49 99 -142 193 -236 240 -104 50 -183 60 -494 61
l-273 0 0 -605z m567 303 c76 -50 134 -218 119 -347 -14 -123 -62 -216 -131
-257 -34 -19 -55 -24 -113 -24 l-72 0 0 331 0 331 78 -3 c65 -3 86 -9 119 -31z"/>
<path d="M3570 1915 l0 -605 190 0 190 0 0 220 0 220 123 0 c153 0 235 13 313
49 84 39 138 91 176 169 31 62 33 74 33 167 0 87 -4 107 -26 156 -36 76 -86
130 -160 168 -96 52 -171 60 -526 61 l-313 0 0 -605z m607 310 c42 -28 52 -46
53 -95 0 -90 -48 -120 -195 -120 l-95 0 0 113 c0 63 3 117 8 121 4 5 51 6 104
4 71 -4 104 -10 125 -23z"/>
<path d="M4730 1915 l0 -605 185 0 185 0 0 605 0 605 -185 0 -185 0 0 -605z"/>
<path d="M4888 802 l-557 -317 -1 -52 c0 -29 2 -53 4 -53 6 0 1100 631 1109
639 5 5 7 29 5 55 l-3 46 -557 -318z"/>
</g>
</svg>
