<?xml version="1.0" encoding="UTF-8"?>
<svg xmlns="http://www.w3.org/2000/svg" xmlns:xlink="http://www.w3.org/1999/xlink" width="39pt" height="26pt" viewBox="0 0 39 26" version="1.1">
<g id="surface1">
<path style=" stroke:none;fill-rule:nonzero;fill:rgb(0%,0%,0%);fill-opacity:1;" d="M 6.164062 3.644531 L 1.59375 6.332031 L 1.585938 12.574219 L 1.585938 18.824219 L 2.179688 18.824219 L 2.191406 12.75 L 2.214844 6.675781 L 6.492188 4.152344 C 8.851562 2.761719 10.800781 1.625 10.828125 1.625 C 10.851562 1.625 12.835938 2.761719 15.226562 4.15625 L 19.574219 6.691406 L 19.832031 6.519531 C 19.96875 6.417969 20.0625 6.316406 20.035156 6.289062 C 19.917969 6.175781 10.898438 0.949219 10.820312 0.949219 C 10.773438 0.949219 8.679688 2.160156 6.164062 3.644531 Z M 6.164062 3.644531 "/>
<path style=" stroke:none;fill-rule:nonzero;fill:rgb(0%,0%,0%);fill-opacity:1;" d="M 6.769531 4.808594 L 3.136719 6.960938 L 3.097656 7.664062 L 3.554688 7.40625 C 3.804688 7.257812 5.46875 6.289062 7.253906 5.246094 L 10.496094 3.351562 L 10.503906 2.992188 C 10.503906 2.804688 10.484375 2.640625 10.457031 2.648438 C 10.421875 2.648438 8.773438 3.621094 6.769531 4.808594 Z M 6.769531 4.808594 "/>
<path style=" stroke:none;fill-rule:nonzero;fill:rgb(0%,0%,0%);fill-opacity:1;" d="M 36.914062 13.316406 L 36.894531 19.390625 L 32.605469 21.925781 C 30.242188 23.3125 28.265625 24.4375 28.214844 24.421875 C 28.152344 24.402344 26.179688 23.265625 23.8125 21.882812 L 19.527344 19.378906 L 19.269531 19.554688 C 19.070312 19.691406 19.039062 19.742188 19.105469 19.804688 C 19.148438 19.851562 21.222656 21.070312 23.703125 22.511719 C 27.625 24.792969 28.238281 25.132812 28.378906 25.078125 C 28.464844 25.046875 30.558594 23.828125 33.027344 22.378906 L 37.515625 19.738281 L 37.519531 13.488281 L 37.519531 7.246094 L 36.925781 7.246094 Z M 36.914062 13.316406 "/>
<path style=" stroke:none;fill-rule:nonzero;fill:rgb(0%,0%,0%);fill-opacity:1;" d="M 5.351562 13.035156 L 5.351562 17.128906 L 7.132812 17.128906 L 7.132812 14.238281 C 7.132812 12.648438 7.160156 11.375 7.1875 11.410156 C 7.21875 11.449219 7.5625 12.707031 7.960938 14.21875 C 8.347656 15.730469 8.6875 17 8.699219 17.050781 C 8.726562 17.109375 8.925781 17.128906 9.5 17.117188 L 10.265625 17.097656 L 10.980469 14.292969 C 11.367188 12.757812 11.707031 11.476562 11.726562 11.457031 C 11.746094 11.4375 11.757812 12.703125 11.757812 14.273438 L 11.757812 17.128906 L 14.003906 17.128906 L 14.003906 8.9375 L 12.40625 8.949219 L 10.808594 8.972656 L 10.273438 11.050781 C 9.980469 12.195312 9.730469 13.140625 9.710938 13.164062 C 9.691406 13.183594 9.417969 12.25 9.109375 11.082031 L 8.546875 8.972656 L 6.949219 8.949219 L 5.351562 8.9375 Z M 5.351562 13.035156 "/>
<path style=" stroke:none;fill-rule:nonzero;fill:rgb(0%,0%,0%);fill-opacity:1;" d="M 15.457031 13.035156 L 15.457031 17.128906 L 17.226562 17.128906 C 19.289062 17.125 19.796875 17.054688 20.535156 16.683594 C 21.792969 16.046875 22.527344 14.707031 22.527344 13.035156 C 22.527344 12.242188 22.386719 11.617188 22.082031 10.976562 C 21.757812 10.304688 21.144531 9.667969 20.523438 9.351562 C 19.835938 9.011719 19.316406 8.945312 17.261719 8.9375 L 15.457031 8.9375 Z M 19.203125 10.980469 C 19.703125 11.320312 20.089844 12.457031 19.988281 13.332031 C 19.894531 14.164062 19.578125 14.792969 19.125 15.070312 C 18.898438 15.199219 18.761719 15.234375 18.378906 15.234375 L 17.902344 15.234375 L 17.902344 10.753906 L 18.417969 10.773438 C 18.847656 10.792969 18.984375 10.832031 19.203125 10.980469 Z M 19.203125 10.980469 "/>
<path style=" stroke:none;fill-rule:nonzero;fill:rgb(0%,0%,0%);fill-opacity:1;" d="M 23.582031 13.035156 L 23.582031 17.128906 L 26.09375 17.128906 L 26.09375 14.152344 L 26.90625 14.152344 C 27.914062 14.152344 28.457031 14.0625 28.972656 13.820312 C 29.527344 13.554688 29.882812 13.203125 30.136719 12.675781 C 30.339844 12.253906 30.351562 12.175781 30.351562 11.542969 C 30.351562 10.957031 30.328125 10.820312 30.179688 10.488281 C 29.945312 9.972656 29.613281 9.609375 29.125 9.351562 C 28.492188 9 27.996094 8.945312 25.648438 8.9375 L 23.582031 8.9375 Z M 27.59375 10.933594 C 27.871094 11.125 27.933594 11.246094 27.941406 11.578125 C 27.941406 12.1875 27.625 12.390625 26.652344 12.390625 L 26.027344 12.390625 L 26.027344 11.625 C 26.027344 11.199219 26.046875 10.832031 26.078125 10.804688 C 26.105469 10.773438 26.417969 10.765625 26.765625 10.777344 C 27.234375 10.804688 27.453125 10.847656 27.59375 10.933594 Z M 27.59375 10.933594 "/>
<path style=" stroke:none;fill-rule:nonzero;fill:rgb(0%,0%,0%);fill-opacity:1;" d="M 31.246094 13.035156 L 31.246094 17.128906 L 33.6875 17.128906 L 33.6875 8.9375 L 31.246094 8.9375 Z M 31.246094 13.035156 "/>
<path style=" stroke:none;fill-rule:nonzero;fill:rgb(0%,0%,0%);fill-opacity:1;" d="M 32.289062 20.570312 L 28.609375 22.714844 L 28.601562 23.066406 C 28.601562 23.265625 28.617188 23.425781 28.628906 23.425781 C 28.667969 23.425781 35.894531 19.15625 35.953125 19.101562 C 35.988281 19.066406 36 18.902344 35.988281 18.726562 L 35.96875 18.417969 Z M 32.289062 20.570312 "/>
</g>
</svg>
